<?xml version="1.0" encoding="UTF-8"?>
<svg width="26px" height="26px" viewBox="0 0 26 26" version="1.1" xmlns="http://www.w3.org/2000/svg" xmlns:xlink="http://www.w3.org/1999/xlink">
    <!-- Generator: Sketch 52.6 (67491) - http://www.bohemiancoding.com/sketch -->
    <title>Icons/Align-center</title>
    <desc>Created with Sketch.</desc>
    <defs>
        <path d="M7.5,15 L18.5,15 C19.3284271,15 20,15.6715729 20,16.5 C20,17.3284271 19.3284271,18 18.5,18 L7.5,18 C6.67157288,18 6,17.3284271 6,16.5 C6,15.6715729 6.67157288,15 7.5,15 Z M2.5,8 L23.5,8 C24.3284271,8 25,8.67157288 25,9.5 C25,10.3284271 24.3284271,11 23.5,11 L2.5,11 C1.67157288,11 1,10.3284271 1,9.5 C1,8.67157288 1.67157288,8 2.5,8 Z" id="path-1"></path>
    </defs>
    <g id="Icons/Align-center" stroke="none" stroke-width="1" fill="none" fill-rule="evenodd">
        <rect fill="#FFFFFF" x="0" y="0" width="26" height="26"></rect>
        <mask id="mask-2" fill="white">
            <use xlink:href="#path-1"></use>
        </mask>
        <g id="Shape"></g>
        <g id="Colors/Black" mask="url(#mask-2)" fill="#22242A">
            <rect id="Color" x="0" y="0" width="26" height="26"></rect>
        </g>
    </g>
</svg>