<?xml version="1.0" encoding="UTF-8"?>
<svg width="26px" height="26px" viewBox="0 0 26 26" version="1.1" xmlns="http://www.w3.org/2000/svg" xmlns:xlink="http://www.w3.org/1999/xlink">
    <!-- Generator: Sketch 52.6 (67491) - http://www.bohemiancoding.com/sketch -->
    <title>Icons/Bag</title>
    <desc>Created with Sketch.</desc>
    <defs>
        <path d="M6.5,8.5 C6.5,4.91014913 9.41014913,2 13,2 C16.5898509,2 19.5,4.91014913 19.5,8.5 L20,8.5 C21.6568542,8.5 23,9.84314575 23,11.5 L21,21.5 C21,23.1568542 19.6568542,24.5 18,24.5 L8,24.5 C6.34314575,24.5 5,23.1568542 5,21.5 L3,11.5 C3,9.84314575 4.34314575,8.5 6,8.5 L6.5,8.5 Z M9.5,8.5 L16.5,8.5 C16.5,6.56700338 14.9329966,5 13,5 C11.0670034,5 9.5,6.56700338 9.5,8.5 Z" id="path-1"></path>
    </defs>
    <g id="Icons/Bag" stroke="none" stroke-width="1" fill="none" fill-rule="evenodd">
        <rect fill="#FFFFFF" x="0" y="0" width="26" height="26"></rect>
        <mask id="mask-2" fill="white">
            <use xlink:href="#path-1"></use>
        </mask>
        <g id="Shape" fill-rule="nonzero"></g>
        <g id="Colors/Black" mask="url(#mask-2)" fill="#22242A">
            <rect id="Color" x="0" y="0" width="26" height="26"></rect>
        </g>
    </g>
</svg>