<?xml version="1.0" encoding="UTF-8"?>
<svg width="26px" height="26px" viewBox="0 0 26 26" version="1.1" xmlns="http://www.w3.org/2000/svg" xmlns:xlink="http://www.w3.org/1999/xlink">
    <!-- Generator: Sketch 52.6 (67491) - http://www.bohemiancoding.com/sketch -->
    <title>Icons/Bubble</title>
    <desc>Created with Sketch.</desc>
    <defs>
        <path d="M19.2380083,18.2374561 L20.7023309,20.7737372 C20.8687552,21.0619926 20.8985451,21.409278 20.7836435,21.7216653 C20.5698202,22.3029942 19.925222,22.6009165 19.3438931,22.3870933 L15.8069319,21.0861354 C14.6441873,21.636625 13.344187,21.944539 11.9722695,21.944539 C7.01702188,21.944539 3,17.9275171 3,12.9722695 C3,8.01702188 7.01702188,4 11.9722695,4 C16.9275171,4 20.944539,8.01702188 20.944539,12.9722695 C20.944539,14.939391 20.3114922,16.7586564 19.2380083,18.2374561 Z" id="path-1"></path>
    </defs>
    <g id="Icons/Bubble" stroke="none" stroke-width="1" fill="none" fill-rule="evenodd">
        <rect fill="#FFFFFF" x="0" y="0" width="26" height="26"></rect>
        <mask id="mask-2" fill="white">
            <use xlink:href="#path-1"></use>
        </mask>
        <g id="Shape"></g>
        <rect id="base" opacity="0" mask="url(#mask-2)" x="0" y="0" width="26" height="26"></rect>
        <g id="Colors/Black" mask="url(#mask-2)" fill="#22242A">
            <rect id="Color" x="0" y="0" width="26" height="26"></rect>
        </g>
    </g>
</svg>