<?xml version="1.0" encoding="UTF-8"?>
<svg width="26px" height="26px" viewBox="0 0 26 26" version="1.1" xmlns="http://www.w3.org/2000/svg" xmlns:xlink="http://www.w3.org/1999/xlink">
    <!-- Generator: Sketch 52.6 (67491) - http://www.bohemiancoding.com/sketch -->
    <title>Icons/Calendar</title>
    <desc>Created with Sketch.</desc>
    <defs>
        <path d="M25,10 L1,10 L1,6 C1,4.34314575 2.34314575,3 4,3 L6,3 L6,5.5 C6,6.32842712 6.67157288,7 7.5,7 C8.32842712,7 9,6.32842712 9,5.5 L9,3 L17,3 L17,5.5 C17,6.32842712 17.6715729,7 18.5,7 C19.3284271,7 20,6.32842712 20,5.5 L20,3 L22,3 C23.6568542,3 25,4.34314575 25,6 L25,10 Z M25,13 L25,20 C25,21.6568542 23.6568542,23 22,23 L4,23 C2.34314575,23 1,21.6568542 1,20 L1,13 L25,13 Z" id="path-1"></path>
    </defs>
    <g id="Icons/Calendar" stroke="none" stroke-width="1" fill="none" fill-rule="evenodd">
        <rect fill="#FFFFFF" x="0" y="0" width="26" height="26"></rect>
        <mask id="mask-2" fill="white">
            <use xlink:href="#path-1"></use>
        </mask>
        <g id="Combined-Shape"></g>
        <g id="Colors/Black" mask="url(#mask-2)" fill="#22242A">
            <rect id="Color" x="0" y="0" width="26" height="26"></rect>
        </g>
    </g>
</svg>