<?xml version="1.0" encoding="UTF-8"?>
<svg width="26px" height="26px" viewBox="0 0 26 26" version="1.1" xmlns="http://www.w3.org/2000/svg" xmlns:xlink="http://www.w3.org/1999/xlink">
    <!-- Generator: Sketch 52.6 (67491) - http://www.bohemiancoding.com/sketch -->
    <title>Icons/Clear</title>
    <desc>Created with Sketch.</desc>
    <defs>
        <path d="M13,24 C6.92486775,24 2,19.0751322 2,13 C2,6.92486775 6.92486775,2 13,2 C19.0751322,2 24,6.92486775 24,13 C24,19.0751322 19.0751322,24 13,24 Z M15.1213203,13 L17.0606602,11.0606602 C17.6464466,10.4748737 17.6464466,9.52512627 17.0606602,8.93933983 C16.4748737,8.35355339 15.5251263,8.35355339 14.9393398,8.93933983 L13,10.8786797 L11.0606602,8.93933983 C10.4748737,8.35355339 9.52512627,8.35355339 8.93933983,8.93933983 C8.35355339,9.52512627 8.35355339,10.4748737 8.93933983,11.0606602 L10.8786797,13 L8.93933983,14.9393398 C8.35355339,15.5251263 8.35355339,16.4748737 8.93933983,17.0606602 C9.52512627,17.6464466 10.4748737,17.6464466 11.0606602,17.0606602 L13,15.1213203 L14.9393398,17.0606602 C15.5251263,17.6464466 16.4748737,17.6464466 17.0606602,17.0606602 C17.6464466,16.4748737 17.6464466,15.5251263 17.0606602,14.9393398 L15.1213203,13 Z" id="path-1"></path>
    </defs>
    <g id="Icons/Clear" stroke="none" stroke-width="1" fill="none" fill-rule="evenodd">
        <rect fill="#FFFFFF" x="0" y="0" width="26" height="26"></rect>
        <mask id="mask-2" fill="white">
            <use xlink:href="#path-1"></use>
        </mask>
        <g id="Shape" fill-rule="nonzero"></g>
        <g id="Colors/Black" mask="url(#mask-2)" fill="#22242A">
            <rect id="Color" x="0" y="0" width="26" height="26"></rect>
        </g>
    </g>
</svg>