<?xml version="1.0" encoding="UTF-8"?>
<svg width="26px" height="26px" viewBox="0 0 26 26" version="1.1" xmlns="http://www.w3.org/2000/svg" xmlns:xlink="http://www.w3.org/1999/xlink">
    <!-- Generator: Sketch 52.6 (67491) - http://www.bohemiancoding.com/sketch -->
    <title>Icons/Clock</title>
    <desc>Created with Sketch.</desc>
    <defs>
        <path d="M10,9.8335593 L13.5559994,6.27252371 C13.9462473,5.88172317 14.5794121,5.88127513 14.9702126,6.27152298 C15.3610132,6.66177083 15.3614612,7.29493565 14.9712133,7.68573619 L10.065369,12.5985285 C9.82460092,12.8396375 9.4913685,12.932162 9.17963589,12.8760213 C9.12135972,12.8865916 9.0613245,12.8921117 9,12.8921117 C8.44771525,12.8921117 8,12.4443965 8,11.8921117 L8,4.94421829 C8,4.39193354 8.44771525,3.94421829 9,3.94421829 C9.55228475,3.94421829 10,4.39193354 10,4.94421829 L10,9.8335593 Z M19.8427734,10.0105158 C19.8427734,15.4535164 15.4366444,19.8665733 10.0004025,19.8665733 C4.56349418,19.8665733 0.157226562,15.4536551 0.157226562,10.0105158 C0.157226562,4.56737642 4.56349418,0.15445825 10.0004025,0.15445825 C15.4366444,0.15445825 19.8427734,4.56751515 19.8427734,10.0105158 Z M17.8427734,10.0105158 C17.8427734,5.67138185 14.3313709,2.15445825 10.0004025,2.15445825 C5.66873948,2.15445825 2.15722656,5.67127124 2.15722656,10.0105158 C2.15722656,14.3497603 5.66873948,17.8665733 10.0004025,17.8665733 C14.3313709,17.8665733 17.8427734,14.3496497 17.8427734,10.0105158 Z" id="path-1"></path>
    </defs>
    <g id="Icons/Clock" stroke="none" stroke-width="1" fill="none" fill-rule="evenodd">
        <rect fill="#FFFFFF" x="0" y="0" width="26" height="26"></rect>
        <g id="Stroke-3-+-Stroke-11-+-↳-🎨Color-Mask" transform="translate(3.000000, 3.000000)">
            <mask id="mask-2" fill="white">
                <use xlink:href="#path-1"></use>
            </mask>
            <use id="Mask" fill="#000000" fill-rule="nonzero" xlink:href="#path-1"></use>
            <g id="Colors/Black" mask="url(#mask-2)" fill="#22242A">
                <g transform="translate(-3.000000, -3.000000)" id="Color">
                    <rect x="0" y="0" width="26" height="26"></rect>
                </g>
            </g>
        </g>
    </g>
</svg>