<?xml version="1.0" encoding="UTF-8"?>
<svg width="26px" height="26px" viewBox="0 0 26 26" version="1.1" xmlns="http://www.w3.org/2000/svg" xmlns:xlink="http://www.w3.org/1999/xlink">
    <!-- Generator: Sketch 52.6 (67491) - http://www.bohemiancoding.com/sketch -->
    <title>Icons/Document</title>
    <desc>Created with Sketch.</desc>
    <defs>
        <path d="M21.4142136,9 L16,9 C15.4477153,9 15,8.55228475 15,8 L15,2.58578644 L21.4142136,9 Z M22,11 L22,21 C22,22.6568542 20.6568542,24 19,24 L7,24 C5.34314575,24 4,22.6568542 4,21 L4,5 C4,3.34314575 5.34314575,2 7,2 L13,2 L13,10 C13,10.5522847 13.4477153,11 14,11 L22,11 Z" id="path-1"></path>
    </defs>
    <g id="Icons/Document" stroke="none" stroke-width="1" fill="none" fill-rule="evenodd">
        <rect fill="#FFFFFF" x="0" y="0" width="26" height="26"></rect>
        <mask id="mask-2" fill="white">
            <use xlink:href="#path-1"></use>
        </mask>
        <g id="Shape" fill-rule="nonzero"></g>
        <g id="Colors/Black" mask="url(#mask-2)" fill="#22242A">
            <rect id="Color" x="0" y="0" width="26" height="26"></rect>
        </g>
    </g>
</svg>