<?xml version="1.0" encoding="UTF-8"?>
<svg width="26px" height="26px" viewBox="0 0 26 26" version="1.1" xmlns="http://www.w3.org/2000/svg" xmlns:xlink="http://www.w3.org/1999/xlink">
    <!-- Generator: Sketch 52.6 (67491) - http://www.bohemiancoding.com/sketch -->
    <title>Icons/Dots</title>
    <desc>Created with Sketch.</desc>
    <defs>
        <path d="M21,15.5 C19.6192881,15.5 18.5,14.3807119 18.5,13 C18.5,11.6192881 19.6192881,10.5 21,10.5 C22.3807119,10.5 23.5,11.6192881 23.5,13 C23.5,14.3807119 22.3807119,15.5 21,15.5 Z M13,15.5 C11.6192881,15.5 10.5,14.3807119 10.5,13 C10.5,11.6192881 11.6192881,10.5 13,10.5 C14.3807119,10.5 15.5,11.6192881 15.5,13 C15.5,14.3807119 14.3807119,15.5 13,15.5 Z M5,15.5 C3.61928813,15.5 2.5,14.3807119 2.5,13 C2.5,11.6192881 3.61928813,10.5 5,10.5 C6.38071187,10.5 7.5,11.6192881 7.5,13 C7.5,14.3807119 6.38071187,15.5 5,15.5 Z" id="path-1"></path>
    </defs>
    <g id="Icons/Dots" stroke="none" stroke-width="1" fill="none" fill-rule="evenodd">
        <rect fill="#FFFFFF" x="0" y="0" width="26" height="26"></rect>
        <mask id="mask-2" fill="white">
            <use xlink:href="#path-1"></use>
        </mask>
        <g id="Shape"></g>
        <g id="Colors/Black" mask="url(#mask-2)" fill="#22242A">
            <rect id="Color" x="0" y="0" width="26" height="26"></rect>
        </g>
    </g>
</svg>