<?xml version="1.0" encoding="UTF-8"?>
<svg width="26px" height="26px" viewBox="0 0 26 26" version="1.1" xmlns="http://www.w3.org/2000/svg" xmlns:xlink="http://www.w3.org/1999/xlink">
    <!-- Generator: Sketch 52.6 (67491) - http://www.bohemiancoding.com/sketch -->
    <title>Icons/Down</title>
    <desc>Created with Sketch.</desc>
    <defs>
        <path d="M11.5,16.3786797 L11.5,6 C11.5,5.17157288 12.1715729,4.5 13,4.5 C13.8284271,4.5 14.5,5.17157288 14.5,6 L14.5,16.3786797 L17.9393398,12.9393398 C18.5251263,12.3535534 19.4748737,12.3535534 20.0606602,12.9393398 C20.6464466,13.5251263 20.6464466,14.4748737 20.0606602,15.0606602 L14.0606602,21.0606602 C13.4748737,21.6464466 12.5251263,21.6464466 11.9393398,21.0606602 L5.93933983,15.0606602 C5.35355339,14.4748737 5.35355339,13.5251263 5.93933983,12.9393398 C6.52512627,12.3535534 7.47487373,12.3535534 8.06066017,12.9393398 L11.5,16.3786797 Z" id="path-1"></path>
    </defs>
    <g id="Icons/Down" stroke="none" stroke-width="1" fill="none" fill-rule="evenodd">
        <rect fill="#FFFFFF" x="0" y="0" width="26" height="26"></rect>
        <mask id="mask-2" fill="white">
            <use xlink:href="#path-1"></use>
        </mask>
        <g id="Shape" fill-rule="nonzero"></g>
        <g id="Colors/Black" mask="url(#mask-2)" fill="#22242A">
            <rect id="Color" x="0" y="0" width="26" height="26"></rect>
        </g>
    </g>
</svg>