<?xml version="1.0" encoding="UTF-8"?>
<svg width="26px" height="26px" viewBox="0 0 26 26" version="1.1" xmlns="http://www.w3.org/2000/svg" xmlns:xlink="http://www.w3.org/1999/xlink">
    <!-- Generator: Sketch 52.6 (67491) - http://www.bohemiancoding.com/sketch -->
    <title>Icons/Download</title>
    <desc>Created with Sketch.</desc>
    <defs>
        <path d="M15,12.1715729 L15.5857864,11.5857864 C16.366835,10.8047379 17.633165,10.8047379 18.4142136,11.5857864 C19.1952621,12.366835 19.1952621,13.633165 18.4142136,14.4142136 L14.4142136,18.4142136 C13.633165,19.1952621 12.366835,19.1952621 11.5857864,18.4142136 L7.58578644,14.4142136 C6.80473785,13.633165 6.80473785,12.366835 7.58578644,11.5857864 C8.36683502,10.8047379 9.63316498,10.8047379 10.4142136,11.5857864 L11,12.1715729 L11,3 C11,1.8954305 11.8954305,1 13,1 C14.1045695,1 15,1.8954305 15,3 L15,12.1715729 Z M2,18 C2,16.8954305 2.8954305,16 4,16 C5.1045695,16 6,16.8954305 6,18 L6,21 L20,21 L20,18 C20,16.8954305 20.8954305,16 22,16 C23.1045695,16 24,16.8954305 24,18 L24,21 C24,23.209139 22.209139,25 20,25 L6,25 C3.790861,25 2,23.209139 2,21 L2,18 Z" id="path-1"></path>
    </defs>
    <g id="Icons/Download" stroke="none" stroke-width="1" fill="none" fill-rule="evenodd">
        <rect fill="#FFFFFF" x="0" y="0" width="26" height="26"></rect>
        <mask id="mask-2" fill="white">
            <use xlink:href="#path-1"></use>
        </mask>
        <g id="Shape" fill-rule="nonzero"></g>
        <g id="Colors/Black" mask="url(#mask-2)" fill="#22242A">
            <rect id="Color" x="0" y="0" width="26" height="26"></rect>
        </g>
    </g>
</svg>