<?xml version="1.0" encoding="UTF-8"?>
<svg width="26px" height="26px" viewBox="0 0 26 26" version="1.1" xmlns="http://www.w3.org/2000/svg" xmlns:xlink="http://www.w3.org/1999/xlink">
    <!-- Generator: Sketch 52.6 (67491) - http://www.bohemiancoding.com/sketch -->
    <title>Icons/Guard</title>
    <desc>Created with Sketch.</desc>
    <defs>
        <path d="M13.4472136,23.8944272 C13.1656861,24.0351909 12.8343139,24.0351909 12.5527864,23.8944272 C12.2759078,23.7559879 11.811078,23.4986714 11.2200011,23.1292483 C10.2398841,22.5166752 9.25994003,21.8062158 8.34149539,21.0025767 C5.64575967,18.6438079 4,15.9694485 4,13 L4,5 C4,4.54113236 4.31229737,4.14114925 4.75746437,4.0298575 L12.7574644,2.0298575 C12.9167044,1.9900475 13.0832956,1.9900475 13.2425356,2.0298575 L21.2425356,4.0298575 C21.6877026,4.14114925 22,4.54113236 22,5 L22,13 C22,15.9694485 20.3542403,18.6438079 17.6585046,21.0025767 C16.74006,21.8062158 15.7601159,22.5166752 14.7799989,23.1292483 C14.188922,23.4986714 13.7240922,23.7559879 13.4472136,23.8944272 Z" id="path-1"></path>
    </defs>
    <g id="Icons/Guard" stroke="none" stroke-width="1" fill="none" fill-rule="evenodd">
        <rect fill="#FFFFFF" x="0" y="0" width="26" height="26"></rect>
        <mask id="mask-2" fill="white">
            <use xlink:href="#path-1"></use>
        </mask>
        <g id="Shape" fill-rule="nonzero"></g>
        <g id="Colors/Black" mask="url(#mask-2)" fill="#22242A">
            <rect id="Color" x="0" y="0" width="26" height="26"></rect>
        </g>
    </g>
</svg>