<?xml version="1.0" encoding="UTF-8"?>
<svg width="26px" height="26px" viewBox="0 0 26 26" version="1.1" xmlns="http://www.w3.org/2000/svg" xmlns:xlink="http://www.w3.org/1999/xlink">
    <!-- Generator: Sketch 52.6 (67491) - http://www.bohemiancoding.com/sketch -->
    <title>Icons/Heart Outline</title>
    <desc>Created with Sketch.</desc>
    <defs>
        <path d="M20.3678377,12.7666473 C21.0892443,12.0159789 21.5,10.9839227 21.5,9.90182572 C21.5,8.8197591 21.0892692,7.78775263 20.3670877,7.03622341 C19.6648123,6.30482856 18.7262731,5.9000001 17.7545545,5.9000001 C16.7827901,5.9000001 15.8442095,6.30486668 15.1415182,7.03674735 L12.9997431,9.26644388 L10.8578086,7.03658136 C9.40280885,5.52185289 7.08705445,5.52185291 5.63205478,7.03658139 C4.12264842,8.60795 4.12264841,11.1957015 5.63205471,12.7670701 L12.9997431,20.4372075 L20.3678377,12.7666473 Z M12.0530439,4.74824321 L12.9997431,5.65761217 L13.9421344,4.7523813 C15.0285667,3.88029707 16.3677692,3.4000001 17.7545545,3.4000001 C19.4109172,3.4000001 20.9993999,4.0851763 22.1703881,5.30471892 C23.3418417,6.5237771 24,8.1774681 24,9.90182572 C24,11.6262616 23.341782,13.2800244 22.1703881,14.4989325 L14.3581913,22.6318257 C13.6079411,23.4128743 12.3915451,23.4128743 11.6412948,22.6318257 L3.82909808,14.4989325 C1.39030062,11.9600205 1.39030065,7.84363094 3.82909814,5.30471899 C6.07435957,2.96728791 9.60394224,2.78179598 12.0530439,4.74824321 Z" id="path-1"></path>
    </defs>
    <g id="Icons/Heart-Outline" stroke="none" stroke-width="1" fill="none" fill-rule="evenodd">
        <rect fill="#FFFFFF" x="0" y="0" width="26" height="26"></rect>
        <mask id="mask-2" fill="white">
            <use xlink:href="#path-1"></use>
        </mask>
        <g id="Shape" fill-rule="nonzero"></g>
        <g id="Colors/Black" mask="url(#mask-2)" fill="#22242A">
            <rect id="Color" x="0" y="0" width="26" height="26"></rect>
        </g>
    </g>
</svg>