<?xml version="1.0" encoding="UTF-8"?>
<svg width="26px" height="26px" viewBox="0 0 26 26" version="1.1" xmlns="http://www.w3.org/2000/svg" xmlns:xlink="http://www.w3.org/1999/xlink">
    <!-- Generator: Sketch 52.6 (67491) - http://www.bohemiancoding.com/sketch -->
    <title>Icons/Kebab</title>
    <desc>Created with Sketch.</desc>
    <defs>
        <path d="M10.5,21 C10.5,19.6192881 11.6192881,18.5 13,18.5 C14.3807119,18.5 15.5,19.6192881 15.5,21 C15.5,22.3807119 14.3807119,23.5 13,23.5 C11.6192881,23.5 10.5,22.3807119 10.5,21 Z M10.5,13 C10.5,11.6192881 11.6192881,10.5 13,10.5 C14.3807119,10.5 15.5,11.6192881 15.5,13 C15.5,14.3807119 14.3807119,15.5 13,15.5 C11.6192881,15.5 10.5,14.3807119 10.5,13 Z M10.5,5 C10.5,3.61928813 11.6192881,2.5 13,2.5 C14.3807119,2.5 15.5,3.61928813 15.5,5 C15.5,6.38071187 14.3807119,7.5 13,7.5 C11.6192881,7.5 10.5,6.38071187 10.5,5 Z" id="path-1"></path>
    </defs>
    <g id="Icons/Kebab" stroke="none" stroke-width="1" fill="none" fill-rule="evenodd">
        <rect fill="#FFFFFF" x="0" y="0" width="26" height="26"></rect>
        <mask id="mask-2" fill="white">
            <use xlink:href="#path-1"></use>
        </mask>
        <g id="Shape"></g>
        <g id="Colors/Black" mask="url(#mask-2)" fill="#22242A">
            <rect id="Color" x="0" y="0" width="26" height="26"></rect>
        </g>
    </g>
</svg>