<?xml version="1.0" encoding="UTF-8"?>
<svg width="26px" height="26px" viewBox="0 0 26 26" version="1.1" xmlns="http://www.w3.org/2000/svg" xmlns:xlink="http://www.w3.org/1999/xlink">
    <!-- Generator: Sketch 52.6 (67491) - http://www.bohemiancoding.com/sketch -->
    <title>Icons/Layers</title>
    <desc>Created with Sketch.</desc>
    <defs>
        <path d="M12.3295082,3.15835921 C12.7517994,2.9472136 13.2488577,2.9472136 13.671149,3.15835921 L23.671149,8.15835921 C24.7767218,8.71114562 24.7767218,10.2888544 23.671149,10.8416408 L13.671149,15.8416408 C13.2488577,16.0527864 12.7517994,16.0527864 12.3295082,15.8416408 L2.32950819,10.8416408 C1.22393538,10.2888544 1.22393538,8.71114562 2.32950819,8.15835921 L12.3295082,3.15835921 Z M22.3295082,15.1583592 C23.0704759,14.7878753 23.9714855,15.0882119 24.3419694,15.8291796 C24.7124532,16.5701474 24.4121167,17.4711569 23.671149,17.8416408 L13.671149,22.8416408 C13.2488577,23.0527864 12.7517994,23.0527864 12.3295082,22.8416408 L2.32950819,17.8416408 C1.58854045,17.4711569 1.28820393,16.5701474 1.6586878,15.8291796 C2.02917167,15.0882119 2.93018123,14.7878753 3.67114898,15.1583592 L13.0003286,19.822949 L22.3295082,15.1583592 Z" id="path-1"></path>
    </defs>
    <g id="Icons/Layers" stroke="none" stroke-width="1" fill="none" fill-rule="evenodd">
        <rect fill="#FFFFFF" x="0" y="0" width="26" height="26"></rect>
        <mask id="mask-2" fill="white">
            <use xlink:href="#path-1"></use>
        </mask>
        <g id="Combined-Shape" fill-rule="nonzero"></g>
        <g id="Colors/Black" mask="url(#mask-2)" fill="#22242A">
            <rect id="Color" x="0" y="0" width="26" height="26"></rect>
        </g>
    </g>
</svg>