<?xml version="1.0" encoding="UTF-8"?>
<svg width="26px" height="26px" viewBox="0 0 26 26" version="1.1" xmlns="http://www.w3.org/2000/svg" xmlns:xlink="http://www.w3.org/1999/xlink">
    <!-- Generator: Sketch 52.6 (67491) - http://www.bohemiancoding.com/sketch -->
    <title>Icons/Message</title>
    <desc>Created with Sketch.</desc>
    <defs>
        <path d="M23.5538711,5.4289022 L22.4452998,6.16794971 L13.0000129,12.7793535 L3.57346234,6.18076808 L2.48650694,5.36536788 C3.02277741,4.54438972 3.94987552,4 5,4 L21,4 C22.0769841,4 23.024568,4.57259424 23.5538711,5.4289022 Z M24,7.53489561 L24,19 C24,20.6522847 22.6522847,22 21,22 L5,22 C3.34771525,22 2,20.6522847 2,19 L2,7.5 L2.4,7.8 L12.4265377,14.8192319 C12.7708578,15.060256 13.2291422,15.060256 13.5734623,14.8192319 L23.5734623,7.81923192 L24,7.53489561 Z" id="path-1"></path>
    </defs>
    <g id="Icons/Message" stroke="none" stroke-width="1" fill="none" fill-rule="evenodd">
        <rect fill="#FFFFFF" x="0" y="0" width="26" height="26"></rect>
        <mask id="mask-2" fill="white">
            <use xlink:href="#path-1"></use>
        </mask>
        <g id="Shape" fill-rule="nonzero"></g>
        <g id="Colors/Black" mask="url(#mask-2)" fill="#22242A">
            <rect id="Color" x="0" y="0" width="26" height="26"></rect>
        </g>
    </g>
</svg>