<?xml version="1.0" encoding="UTF-8"?>
<svg width="26px" height="26px" viewBox="0 0 26 26" version="1.1" xmlns="http://www.w3.org/2000/svg" xmlns:xlink="http://www.w3.org/1999/xlink">
    <!-- Generator: Sketch 52.6 (67491) - http://www.bohemiancoding.com/sketch -->
    <title>Icons/Pause</title>
    <desc>Created with Sketch.</desc>
    <defs>
        <path d="M7,4 L11,4 C11.5522847,4 12,4.44771525 12,5 L12,21 C12,21.5522847 11.5522847,22 11,22 L7,22 C6.44771525,22 6,21.5522847 6,21 L6,5 C6,4.44771525 6.44771525,4 7,4 Z M15,4 L19,4 C19.5522847,4 20,4.44771525 20,5 L20,21 C20,21.5522847 19.5522847,22 19,22 L15,22 C14.4477153,22 14,21.5522847 14,21 L14,5 C14,4.44771525 14.4477153,4 15,4 Z" id="path-1"></path>
    </defs>
    <g id="Icons/Pause" stroke="none" stroke-width="1" fill="none" fill-rule="evenodd">
        <rect fill="#FFFFFF" x="0" y="0" width="26" height="26"></rect>
        <mask id="mask-2" fill="white">
            <use xlink:href="#path-1"></use>
        </mask>
        <g id="Combined-Shape" fill-rule="nonzero"></g>
        <g id="Colors/Black" mask="url(#mask-2)" fill="#22242A">
            <rect id="Color" x="0" y="0" width="26" height="26"></rect>
        </g>
    </g>
</svg>