<?xml version="1.0" encoding="UTF-8"?>
<svg width="26px" height="26px" viewBox="0 0 26 26" version="1.1" xmlns="http://www.w3.org/2000/svg" xmlns:xlink="http://www.w3.org/1999/xlink">
    <!-- Generator: Sketch 52.6 (67491) - http://www.bohemiancoding.com/sketch -->
    <title>Icons/Plus</title>
    <desc>Created with Sketch.</desc>
    <defs>
        <path d="M14.5,11.5 L20,11.5 C20.8284271,11.5 21.5,12.1715729 21.5,13 C21.5,13.8284271 20.8284271,14.5 20,14.5 L14.5,14.5 L14.5,20 C14.5,20.8284271 13.8284271,21.5 13,21.5 C12.1715729,21.5 11.5,20.8284271 11.5,20 L11.5,14.5 L6,14.5 C5.17157288,14.5 4.5,13.8284271 4.5,13 C4.5,12.1715729 5.17157288,11.5 6,11.5 L11.5,11.5 L11.5,6 C11.5,5.17157288 12.1715729,4.5 13,4.5 C13.8284271,4.5 14.5,5.17157288 14.5,6 L14.5,11.5 Z" id="path-1"></path>
    </defs>
    <g id="Icons/Plus" stroke="none" stroke-width="1" fill="none" fill-rule="evenodd">
        <rect fill="#FFFFFF" x="0" y="0" width="26" height="26"></rect>
        <mask id="mask-2" fill="white">
            <use xlink:href="#path-1"></use>
        </mask>
        <g id="Shape" fill-rule="nonzero"></g>
        <g id="Colors/Black" mask="url(#mask-2)" fill="#22242A">
            <rect id="Color" x="0" y="0" width="26" height="26"></rect>
        </g>
    </g>
</svg>