<?xml version="1.0" encoding="utf-8"?>
<!-- Generator: Adobe Illustrator 16.0.0, SVG Export Plug-In . SVG Version: 6.00 Build 0)  -->
<!DOCTYPE svg PUBLIC "-//W3C//DTD SVG 1.1//EN" "http://www.w3.org/Graphics/SVG/1.1/DTD/svg11.dtd">
<svg version="1.1" id="Layer_1" xmlns="http://www.w3.org/2000/svg" xmlns:xlink="http://www.w3.org/1999/xlink" x="0px" y="0px"
	 width="26px" height="26px" viewBox="0 0 26 26" enable-background="new 0 0 26 26" xml:space="preserve">
<title>Icons/Profile</title>
<desc>Created with Sketch.</desc>
<g id="Icons_x2F_Profile">
	<rect fill="#FFFFFF" width="26" height="26"/>
	<g id="Profile">
		<path id="path-1_1_" fill="#FFFFFF" d="M13,23c-2.772,0-5.28-1.129-7.091-2.951c0.899-0.77,2.075-1.346,3.718-2.076l0.489-0.219
			c1.432-1.525-0.279-3.992-0.431-4.205c-0.136-0.148-0.778-0.929-0.463-2.057C9.06,10.942,8.47,8.6,9.592,7.035
			c0.65-0.908,1.737-1.372,3.23-1.381c1.417-0.345,2.512-0.11,3.259,0.701c1.254,1.362,1.039,3.861,0.797,4.761
			c0.095,0.319,0.202,1.111-0.42,2.363c-0.108,0.218-0.231,0.444-0.36,0.675c-0.839,1.525-1.306,2.605-0.154,3.574
			c0.426,0.127,2.464,0.838,4.072,2.394C18.21,21.9,15.734,23,13,23 M13,2C6.925,2,2,6.925,2,13s4.925,11,11,11s11-4.925,11-11
			S19.075,2,13,2"/>
	</g>
	<defs>
		<filter id="Adobe_OpacityMaskFilter" filterUnits="userSpaceOnUse" x="0" y="0" width="26" height="26">
			<feColorMatrix  type="matrix" values="1 0 0 0 0  0 1 0 0 0  0 0 1 0 0  0 0 0 1 0"/>
		</filter>
	</defs>
	<mask maskUnits="userSpaceOnUse" x="0" y="0" width="26" height="26" id="mask-2">
		<g filter="url(#Adobe_OpacityMaskFilter)">
			<path id="path-1" fill="#FFFFFF" d="M13,23c-2.772,0-5.28-1.129-7.091-2.951c0.899-0.77,2.075-1.346,3.718-2.076l0.489-0.219
				c1.432-1.525-0.279-3.992-0.431-4.205c-0.136-0.148-0.778-0.929-0.463-2.057C9.06,10.942,8.47,8.6,9.592,7.035
				c0.65-0.908,1.737-1.372,3.23-1.381c1.417-0.345,2.512-0.11,3.259,0.701c1.254,1.362,1.039,3.861,0.797,4.761
				c0.095,0.319,0.202,1.111-0.42,2.363c-0.108,0.218-0.231,0.444-0.36,0.675c-0.839,1.525-1.306,2.605-0.154,3.574
				c0.426,0.127,2.464,0.838,4.072,2.394C18.21,21.9,15.734,23,13,23 M13,2C6.925,2,2,6.925,2,13s4.925,11,11,11s11-4.925,11-11
				S19.075,2,13,2"/>
		</g>
	</mask>
	<g id="Colors_x2F_Black" mask="url(#mask-2)">
		<rect id="Color" fill="#666666" width="26" height="26"/>
	</g>
</g>
</svg>
