<?xml version="1.0" encoding="UTF-8"?>
<svg width="26px" height="26px" viewBox="0 0 26 26" version="1.1" xmlns="http://www.w3.org/2000/svg" xmlns:xlink="http://www.w3.org/1999/xlink">
    <!-- Generator: Sketch 52.6 (67491) - http://www.bohemiancoding.com/sketch -->
    <title>Icons/Question</title>
    <desc>Created with Sketch.</desc>
    <defs>
        <path d="M13,24 C6.92486775,24 2,19.0751322 2,13 C2,6.92486775 6.92486775,2 13,2 C19.0751322,2 24,6.92486775 24,13 C24,19.0751322 19.0751322,24 13,24 Z M9.74854642,10.5073242 L12.1289175,10.5073242 C12.1508902,9.796875 12.6342886,9.328125 13.3374136,9.328125 C14.0258902,9.328125 14.5092886,9.73828125 14.5092886,10.331543 C14.5092886,10.9760742 14.252941,11.2836914 13.2568472,11.8696289 C12.2387808,12.4555664 11.8725699,13.1147461 12.01173,14.3671875 L12.0337027,14.6601562 L14.3188589,14.6601562 L14.3188589,14.315918 C14.3188589,13.6274414 14.5971792,13.2978516 15.6005972,12.7192383 C16.6772574,12.0966797 17.1826285,11.3496094 17.1826285,10.265625 C17.1826285,8.5078125 15.7324331,7.3359375 13.5058706,7.3359375 C11.1621206,7.3359375 9.77051908,8.58837891 9.74854642,10.5073242 Z M13.2421988,18.2563477 C14.187023,18.2563477 14.7363394,17.765625 14.7363394,16.9233398 C14.7363394,16.0737305 14.187023,15.5830078 13.2421988,15.5830078 C12.2973745,15.5830078 11.7407339,16.0737305 11.7407339,16.9233398 C11.7407339,17.765625 12.2973745,18.2563477 13.2421988,18.2563477 Z" id="path-1"></path>
    </defs>
    <g id="Icons/Question" stroke="none" stroke-width="1" fill="none" fill-rule="evenodd">
        <rect fill="#FFFFFF" x="0" y="0" width="26" height="26"></rect>
        <mask id="mask-2" fill="white">
            <use xlink:href="#path-1"></use>
        </mask>
        <g id="Combined-Shape" fill-rule="nonzero"></g>
        <g id="Colors/Black" mask="url(#mask-2)" fill="#22242A">
            <rect id="Color" x="0" y="0" width="26" height="26"></rect>
        </g>
    </g>
</svg>