<?xml version="1.0" encoding="UTF-8"?>
<svg width="26px" height="26px" viewBox="0 0 26 26" version="1.1" xmlns="http://www.w3.org/2000/svg" xmlns:xlink="http://www.w3.org/1999/xlink">
    <!-- Generator: Sketch 52.6 (67491) - http://www.bohemiancoding.com/sketch -->
    <title>Icons/Slash</title>
    <desc>Created with Sketch.</desc>
    <defs>
        <path d="M6.0227236,8.14404394 C5.06288011,9.52061711 4.5,11.1945747 4.5,13 C4.5,17.6944204 8.30557963,21.5 13,21.5 C14.8054253,21.5 16.4793829,20.9371199 17.8559561,19.9772764 L6.0227236,8.14404394 Z M8.14404394,6.0227236 L19.9772764,17.8559561 C20.9371199,16.4793829 21.5,14.8054253 21.5,13 C21.5,8.30557963 17.6944204,4.5 13,4.5 C11.1945747,4.5 9.52061711,5.06288011 8.14404394,6.0227236 Z M13,24.5 C6.64872538,24.5 1.5,19.3512746 1.5,13 C1.5,6.64872538 6.64872538,1.5 13,1.5 C19.3512746,1.5 24.5,6.64872538 24.5,13 C24.5,19.3512746 19.3512746,24.5 13,24.5 Z" id="path-1"></path>
    </defs>
    <g id="Icons/Slash" stroke="none" stroke-width="1" fill="none" fill-rule="evenodd">
        <rect fill="#FFFFFF" x="0" y="0" width="26" height="26"></rect>
        <mask id="mask-2" fill="white">
            <use xlink:href="#path-1"></use>
        </mask>
        <g id="Shape" fill-rule="nonzero"></g>
        <g id="Colors/Black" mask="url(#mask-2)" fill="#22242A">
            <rect id="Color" x="0" y="0" width="26" height="26"></rect>
        </g>
    </g>
</svg>