<?xml version="1.0" encoding="UTF-8"?>
<svg width="26px" height="26px" viewBox="0 0 26 26" version="1.1" xmlns="http://www.w3.org/2000/svg" xmlns:xlink="http://www.w3.org/1999/xlink">
    <!-- Generator: Sketch 52.6 (67491) - http://www.bohemiancoding.com/sketch -->
    <title>Icons/Trash</title>
    <desc>Created with Sketch.</desc>
    <defs>
        <path d="M5,10 L21,10 L21,22 C21,23.6568542 19.6568542,25 18,25 L8,25 C6.34314575,25 5,23.6568542 5,22 L5,10 Z M5,2 L21,2 C22.1045695,2 23,2.8954305 23,4 L23,6 C23,7.1045695 22.1045695,8 21,8 L5,8 C3.8954305,8 3,7.1045695 3,6 L3,4 C3,2.8954305 3.8954305,2 5,2 Z" id="path-1"></path>
    </defs>
    <g id="Icons/Trash" stroke="none" stroke-width="1" fill="none" fill-rule="evenodd">
        <rect fill="#FFFFFF" x="0" y="0" width="26" height="26"></rect>
        <mask id="mask-2" fill="white">
            <use xlink:href="#path-1"></use>
        </mask>
        <g id="Shape"></g>
        <g id="Colors/Black" mask="url(#mask-2)" fill="#22242A">
            <rect id="Color" x="0" y="0" width="26" height="26"></rect>
        </g>
    </g>
</svg>