<?xml version="1.0" encoding="UTF-8"?>
<svg width="26px" height="26px" viewBox="0 0 26 26" version="1.1" xmlns="http://www.w3.org/2000/svg" xmlns:xlink="http://www.w3.org/1999/xlink">
    <!-- Generator: Sketch 52.6 (67491) - http://www.bohemiancoding.com/sketch -->
    <title>Icons/Up</title>
    <desc>Created with Sketch.</desc>
    <defs>
        <path d="M11.5,9.62132034 L8.06066017,13.0606602 C7.47487373,13.6464466 6.52512627,13.6464466 5.93933983,13.0606602 C5.35355339,12.4748737 5.35355339,11.5251263 5.93933983,10.9393398 L11.9393398,4.93933983 C12.5251263,4.35355339 13.4748737,4.35355339 14.0606602,4.93933983 L20.0606602,10.9393398 C20.6464466,11.5251263 20.6464466,12.4748737 20.0606602,13.0606602 C19.4748737,13.6464466 18.5251263,13.6464466 17.9393398,13.0606602 L14.5,9.62132034 L14.5,20 C14.5,20.8284271 13.8284271,21.5 13,21.5 C12.1715729,21.5 11.5,20.8284271 11.5,20 L11.5,9.62132034 Z" id="path-1"></path>
    </defs>
    <g id="Icons/Up" stroke="none" stroke-width="1" fill="none" fill-rule="evenodd">
        <rect fill="#FFFFFF" x="0" y="0" width="26" height="26"></rect>
        <mask id="mask-2" fill="white">
            <use xlink:href="#path-1"></use>
        </mask>
        <g id="Up" fill-rule="nonzero"></g>
        <g id="Colors/Black" mask="url(#mask-2)" fill="#22242A">
            <rect id="Color" x="0" y="0" width="26" height="26"></rect>
        </g>
    </g>
</svg>