<?xml version="1.0" encoding="UTF-8"?>
<svg width="26px" height="26px" viewBox="0 0 26 26" version="1.1" xmlns="http://www.w3.org/2000/svg" xmlns:xlink="http://www.w3.org/1999/xlink">
    <!-- Generator: Sketch 52.6 (67491) - http://www.bohemiancoding.com/sketch -->
    <title>Icons/Voicemail</title>
    <desc>Created with Sketch.</desc>
    <defs>
        <path d="M11.1973068,16 L14.8026932,16 C14.2921829,15.1174799 14,14.0928614 14,13 C14,9.6862915 16.6862915,7 20,7 C23.3137085,7 26,9.6862915 26,13 C26,16.3137085 23.3137085,19 20,19 C19.7741003,19 19.5511164,18.9875159 19.3317007,18.9632001 C19.224997,18.9872865 19.1139832,19 19,19 L6,19 C2.6862915,19 0,16.3137085 0,13 C0,9.6862915 2.6862915,7 6,7 C9.3137085,7 12,9.6862915 12,13 C12,14.0928614 11.7078171,15.1174799 11.1973068,16 Z M6,16 C7.65685425,16 9,14.6568542 9,13 C9,11.3431458 7.65685425,10 6,10 C4.34314575,10 3,11.3431458 3,13 C3,14.6568542 4.34314575,16 6,16 Z M20,16 C21.6568542,16 23,14.6568542 23,13 C23,11.3431458 21.6568542,10 20,10 C18.3431458,10 17,11.3431458 17,13 C17,14.6568542 18.3431458,16 20,16 Z" id="path-1"></path>
    </defs>
    <g id="Icons/Voicemail" stroke="none" stroke-width="1" fill="none" fill-rule="evenodd">
        <rect fill="#FFFFFF" x="0" y="0" width="26" height="26"></rect>
        <mask id="mask-2" fill="white">
            <use xlink:href="#path-1"></use>
        </mask>
        <g id="Shape" fill-rule="nonzero"></g>
        <g id="Colors/Black" mask="url(#mask-2)" fill="#22242A">
            <rect id="Color" x="0" y="0" width="26" height="26"></rect>
        </g>
    </g>
</svg>